<mxfile host="app.diagrams.net" modified="2024-04-22T22:38:19.999Z" agent="Mozilla/5.0 (Windows NT 10.0; Win64; x64) AppleWebKit/537.36 (KHTML, like Gecko) Chrome/121.0.0.0 Safari/537.36 OPR/107.0.0.0 (Edition std-1)" etag="hbMjISGIhsl0Ouw-J_OU" version="24.2.5" type="github">
  <diagram name="Strona-1" id="0XVHCtTMGLhsiArneO4f">
    <mxGraphModel dx="1384" dy="303" grid="1" gridSize="10" guides="1" tooltips="1" connect="1" arrows="1" fold="1" page="1" pageScale="1" pageWidth="827" pageHeight="1169" math="0" shadow="0">
      <root>
        <mxCell id="0" />
        <mxCell id="1" parent="0" />
        <mxCell id="JoC4vt0uxFuf1quDbikh-2" value="&amp;lt;&amp;lt;device&amp;gt;&amp;gt;&lt;br&gt;&lt;div style=&quot;&quot;&gt;&lt;span style=&quot;background-color: initial;&quot;&gt;Opera&lt;/span&gt;&lt;/div&gt;&lt;div style=&quot;&quot;&gt;&lt;span style=&quot;background-color: initial;&quot;&gt;&lt;br&gt;&lt;/span&gt;&lt;/div&gt;&lt;div style=&quot;text-align: left;&quot;&gt;&lt;span style=&quot;background-color: initial;&quot;&gt;&lt;br&gt;&lt;/span&gt;&lt;/div&gt;" style="verticalAlign=top;align=center;spacingTop=8;spacingLeft=2;spacingRight=12;shape=cube;size=10;direction=south;fontStyle=4;html=1;whiteSpace=wrap;" vertex="1" parent="1">
          <mxGeometry x="470" y="220" width="260" height="240" as="geometry" />
        </mxCell>
        <mxCell id="JoC4vt0uxFuf1quDbikh-5" value="" style="line;strokeWidth=1;fillColor=none;align=left;verticalAlign=middle;spacingTop=-1;spacingLeft=3;spacingRight=3;rotatable=0;labelPosition=right;points=[];portConstraint=eastwest;strokeColor=inherit;" vertex="1" parent="1">
          <mxGeometry x="470" y="270" width="250" height="8" as="geometry" />
        </mxCell>
        <mxCell id="JoC4vt0uxFuf1quDbikh-7" value="&amp;lt;&amp;lt;serwer bazodanowy&amp;gt;&amp;gt;&lt;br&gt;&lt;div style=&quot;&quot;&gt;&lt;span style=&quot;background-color: initial;&quot;&gt;Bazar&lt;/span&gt;&lt;/div&gt;" style="verticalAlign=top;align=center;spacingTop=8;spacingLeft=2;spacingRight=12;shape=cube;size=10;direction=south;fontStyle=4;html=1;whiteSpace=wrap;movable=1;resizable=1;rotatable=1;deletable=1;editable=1;locked=0;connectable=1;" vertex="1" parent="1">
          <mxGeometry x="-30" y="220" width="260" height="240" as="geometry" />
        </mxCell>
        <mxCell id="JoC4vt0uxFuf1quDbikh-8" value="" style="line;strokeWidth=1;fillColor=none;align=left;verticalAlign=middle;spacingTop=-1;spacingLeft=3;spacingRight=3;rotatable=1;labelPosition=right;points=[];portConstraint=eastwest;strokeColor=inherit;movable=1;resizable=1;deletable=1;editable=1;locked=0;connectable=1;" vertex="1" parent="1">
          <mxGeometry x="-30" y="270" width="250" height="8" as="geometry" />
        </mxCell>
        <mxCell id="JoC4vt0uxFuf1quDbikh-11" value="&lt;span style=&quot;font-weight: normal;&quot;&gt;CPU: 2x Intel Xeon 1.6GHz&lt;/span&gt;&lt;div style=&quot;&quot;&gt;&lt;span style=&quot;font-weight: normal;&quot;&gt;RAM: 1GB&lt;/span&gt;&lt;/div&gt;" style="text;align=left;fontStyle=1;verticalAlign=middle;spacingLeft=3;spacingRight=3;strokeColor=none;rotatable=0;points=[[0,0.5],[1,0.5]];portConstraint=eastwest;html=1;" vertex="1" parent="1">
          <mxGeometry x="470" y="278" width="180" height="32" as="geometry" />
        </mxCell>
        <mxCell id="JoC4vt0uxFuf1quDbikh-12" value="&lt;span style=&quot;font-weight: normal;&quot;&gt;CPU: PIV 2GHz&lt;/span&gt;&lt;div style=&quot;&quot;&gt;&lt;span style=&quot;font-weight: normal;&quot;&gt;RAM: 1GB&lt;/span&gt;&lt;/div&gt;" style="text;align=left;fontStyle=1;verticalAlign=middle;spacingLeft=3;spacingRight=3;strokeColor=none;rotatable=0;points=[[0,0.5],[1,0.5]];portConstraint=eastwest;html=1;" vertex="1" parent="1">
          <mxGeometry x="-30" y="278" width="180" height="32" as="geometry" />
        </mxCell>
        <mxCell id="JoC4vt0uxFuf1quDbikh-14" value="&amp;lt;&amp;lt;Ethernet&amp;gt;&amp;gt;" style="html=1;verticalAlign=bottom;endArrow=none;curved=0;rounded=0;entryX=0.521;entryY=-0.004;entryDx=0;entryDy=0;entryPerimeter=0;exitX=0;exitY=0;exitDx=125;exitDy=260;exitPerimeter=0;endFill=0;" edge="1" parent="1" source="JoC4vt0uxFuf1quDbikh-2" target="JoC4vt0uxFuf1quDbikh-7">
          <mxGeometry width="80" relative="1" as="geometry">
            <mxPoint x="320" y="470" as="sourcePoint" />
            <mxPoint x="400" y="470" as="targetPoint" />
          </mxGeometry>
        </mxCell>
        <mxCell id="JoC4vt0uxFuf1quDbikh-15" value="&amp;lt;&amp;lt;stacja robocza&amp;gt;&amp;gt;&lt;br&gt;&lt;div style=&quot;&quot;&gt;&lt;br&gt;&lt;/div&gt;&lt;div style=&quot;&quot;&gt;&lt;span style=&quot;background-color: initial;&quot;&gt;&lt;br&gt;&lt;/span&gt;&lt;/div&gt;&lt;div style=&quot;text-align: left;&quot;&gt;&lt;span style=&quot;background-color: initial;&quot;&gt;&lt;br&gt;&lt;/span&gt;&lt;/div&gt;" style="verticalAlign=top;align=center;spacingTop=8;spacingLeft=2;spacingRight=12;shape=cube;size=10;direction=south;fontStyle=4;html=1;whiteSpace=wrap;" vertex="1" parent="1">
          <mxGeometry x="-30" y="560" width="260" height="240" as="geometry" />
        </mxCell>
        <mxCell id="JoC4vt0uxFuf1quDbikh-16" value="" style="line;strokeWidth=1;fillColor=none;align=left;verticalAlign=middle;spacingTop=-1;spacingLeft=3;spacingRight=3;rotatable=0;labelPosition=right;points=[];portConstraint=eastwest;strokeColor=inherit;" vertex="1" parent="1">
          <mxGeometry x="-30" y="591" width="250" height="8" as="geometry" />
        </mxCell>
        <mxCell id="JoC4vt0uxFuf1quDbikh-17" value="&amp;lt;&amp;lt;Ethernet&amp;gt;&amp;gt;" style="html=1;verticalAlign=bottom;endArrow=none;curved=0;rounded=0;entryX=0;entryY=0;entryDx=0;entryDy=0;entryPerimeter=0;endFill=0;exitX=1;exitY=1;exitDx=0;exitDy=0;exitPerimeter=0;" edge="1" parent="1" source="JoC4vt0uxFuf1quDbikh-2" target="JoC4vt0uxFuf1quDbikh-15">
          <mxGeometry width="80" relative="1" as="geometry">
            <mxPoint x="150" y="480" as="sourcePoint" />
            <mxPoint x="410" y="510" as="targetPoint" />
          </mxGeometry>
        </mxCell>
        <mxCell id="JoC4vt0uxFuf1quDbikh-18" value="&amp;lt;&amp;lt;komputer przenoÅ›ny&amp;gt;&amp;gt;" style="verticalAlign=top;align=center;spacingTop=8;spacingLeft=2;spacingRight=12;shape=cube;size=10;direction=south;fontStyle=4;html=1;whiteSpace=wrap;" vertex="1" parent="1">
          <mxGeometry x="470" y="560" width="260" height="240" as="geometry" />
        </mxCell>
        <mxCell id="JoC4vt0uxFuf1quDbikh-19" value="" style="line;strokeWidth=1;fillColor=none;align=left;verticalAlign=middle;spacingTop=-1;spacingLeft=3;spacingRight=3;rotatable=0;labelPosition=right;points=[];portConstraint=eastwest;strokeColor=inherit;" vertex="1" parent="1">
          <mxGeometry x="470" y="591" width="250" height="8" as="geometry" />
        </mxCell>
        <mxCell id="JoC4vt0uxFuf1quDbikh-20" value="100" style="text;align=center;fontStyle=1;verticalAlign=middle;spacingLeft=3;spacingRight=3;strokeColor=none;rotatable=0;points=[[0,0.5],[1,0.5]];portConstraint=eastwest;html=1;" vertex="1" parent="1">
          <mxGeometry x="660" y="569" width="80" height="26" as="geometry" />
        </mxCell>
        <mxCell id="JoC4vt0uxFuf1quDbikh-21" value="1" style="text;align=center;fontStyle=1;verticalAlign=middle;spacingLeft=3;spacingRight=3;strokeColor=none;rotatable=0;points=[[0,0.5],[1,0.5]];portConstraint=eastwest;html=1;" vertex="1" parent="1">
          <mxGeometry x="190" y="236" width="30" height="26" as="geometry" />
        </mxCell>
        <mxCell id="JoC4vt0uxFuf1quDbikh-22" value="1" style="text;align=center;fontStyle=1;verticalAlign=middle;spacingLeft=3;spacingRight=3;strokeColor=none;rotatable=0;points=[[0,0.5],[1,0.5]];portConstraint=eastwest;html=1;" vertex="1" parent="1">
          <mxGeometry x="690" y="230" width="30" height="26" as="geometry" />
        </mxCell>
        <mxCell id="JoC4vt0uxFuf1quDbikh-23" value="10" style="text;align=center;fontStyle=1;verticalAlign=middle;spacingLeft=3;spacingRight=3;strokeColor=none;rotatable=0;points=[[0,0.5],[1,0.5]];portConstraint=eastwest;html=1;" vertex="1" parent="1">
          <mxGeometry x="190" y="569" width="30" height="26" as="geometry" />
        </mxCell>
        <mxCell id="JoC4vt0uxFuf1quDbikh-24" value="&amp;lt;&amp;lt;Internet&amp;gt;&amp;gt;" style="html=1;verticalAlign=bottom;endArrow=none;curved=0;rounded=0;entryX=-0.012;entryY=0.515;entryDx=0;entryDy=0;entryPerimeter=0;exitX=0;exitY=0;exitDx=240;exitDy=135;exitPerimeter=0;endFill=0;" edge="1" parent="1" source="JoC4vt0uxFuf1quDbikh-2" target="JoC4vt0uxFuf1quDbikh-18">
          <mxGeometry width="80" relative="1" as="geometry">
            <mxPoint x="290" y="470" as="sourcePoint" />
            <mxPoint x="520" y="480" as="targetPoint" />
          </mxGeometry>
        </mxCell>
        <mxCell id="JoC4vt0uxFuf1quDbikh-25" value="&lt;span style=&quot;font-weight: normal;&quot;&gt;CPU: PIV 2GHz&lt;/span&gt;&lt;div style=&quot;&quot;&gt;&lt;span style=&quot;font-weight: normal;&quot;&gt;RAM: 256MB&lt;/span&gt;&lt;/div&gt;" style="text;align=left;fontStyle=1;verticalAlign=middle;spacingLeft=3;spacingRight=3;strokeColor=none;rotatable=0;points=[[0,0.5],[1,0.5]];portConstraint=eastwest;html=1;" vertex="1" parent="1">
          <mxGeometry x="-30" y="595" width="180" height="32" as="geometry" />
        </mxCell>
        <mxCell id="JoC4vt0uxFuf1quDbikh-26" value="BazaRozliczen" style="shape=module;align=left;spacingLeft=20;align=center;verticalAlign=top;whiteSpace=wrap;html=1;" vertex="1" parent="1">
          <mxGeometry x="-10" y="317.5" width="130" height="45" as="geometry" />
        </mxCell>
        <mxCell id="JoC4vt0uxFuf1quDbikh-27" value="BazaAdmin" style="shape=module;align=left;spacingLeft=20;align=center;verticalAlign=top;whiteSpace=wrap;html=1;" vertex="1" parent="1">
          <mxGeometry x="-10" y="380" width="130" height="45" as="geometry" />
        </mxCell>
        <mxCell id="JoC4vt0uxFuf1quDbikh-28" value="" style="rounded=0;orthogonalLoop=1;jettySize=auto;html=1;endArrow=halfCircle;endFill=0;endSize=6;strokeWidth=1;sketch=0;fontSize=12;curved=1;" edge="1" parent="1">
          <mxGeometry relative="1" as="geometry">
            <mxPoint x="120" y="340" as="sourcePoint" />
            <mxPoint x="140" y="340" as="targetPoint" />
            <Array as="points">
              <mxPoint x="130.39" y="340" />
            </Array>
          </mxGeometry>
        </mxCell>
        <mxCell id="JoC4vt0uxFuf1quDbikh-29" value="" style="ellipse;whiteSpace=wrap;html=1;align=center;aspect=fixed;fillColor=none;strokeColor=none;resizable=0;perimeter=centerPerimeter;rotatable=0;allowArrows=0;points=[];outlineConnect=1;" vertex="1" parent="1">
          <mxGeometry x="140" y="330" width="10" height="10" as="geometry" />
        </mxCell>
        <mxCell id="JoC4vt0uxFuf1quDbikh-30" value="" style="rounded=0;orthogonalLoop=1;jettySize=auto;html=1;endArrow=halfCircle;endFill=0;endSize=6;strokeWidth=1;sketch=0;fontSize=12;curved=1;exitX=1;exitY=0.5;exitDx=0;exitDy=0;" edge="1" parent="1" source="JoC4vt0uxFuf1quDbikh-27">
          <mxGeometry relative="1" as="geometry">
            <mxPoint x="130" y="402.3" as="sourcePoint" />
            <mxPoint x="140" y="402.3" as="targetPoint" />
          </mxGeometry>
        </mxCell>
        <mxCell id="JoC4vt0uxFuf1quDbikh-31" value="" style="ellipse;whiteSpace=wrap;html=1;align=center;aspect=fixed;fillColor=none;strokeColor=none;resizable=0;perimeter=centerPerimeter;rotatable=0;allowArrows=0;points=[];outlineConnect=1;" vertex="1" parent="1">
          <mxGeometry x="125" y="397.5" width="10" height="10" as="geometry" />
        </mxCell>
      </root>
    </mxGraphModel>
  </diagram>
</mxfile>
